<svg xmlns="http://www.w3.org/2000/svg" width="27" height="25">
    <path fill="#AEAEAE" fill-rule="evenodd" d="M25.999 24.999h-25a1 1 0 0 1-1-1.002V9.98h27v14.017c0 .553-.448 1.002-1 1.002zm-11-12.015h-6c-.55 0-1 .45-1 1.001 0 .551.45 1.001 1 1.001h6c.55 0 1-.45 1-1.001 0-.551-.45-1.001-1-1.001zm4 4.005h-10c-.55 0-1 .45-1 1.001 0 .551.45 1.001 1 1.001h10c.55 0 1-.45 1-1.001 0-.551-.45-1.001-1-1.001zm-19-15.987a1 1 0 0 1 1-1.001h11a1 1 0 0 1 1 1.001v2.971h13a1 1 0 0 1 1 1.001v3.004h-27V1.002z"/>
</svg>
