<svg xmlns="http://www.w3.org/2000/svg" width="25" height="27">
    <path fill="#AEAEAE" fill-rule="evenodd" d="M2.631 23.42c-2.893-3.283-2.48-8.301.925-11.219L15.317 2.122c2.475-2.121 6.183-1.906 8.287.48 2.103 2.387 1.802 6.038-.673 8.159l-9.52 8.159c-1.546 1.325-3.866 1.191-5.18-.299-1.313-1.491-1.125-3.775.421-5.1l8.4-7.199 1.903 2.16-8.5 7.285c-.616.528.336 1.608.951 1.08l9.621-8.245c1.232-1.056 1.384-2.892.337-4.08-1.047-1.188-2.912-1.296-4.143-.24L5.461 14.361c-2.162 1.853-2.427 5.055-.591 7.139 1.838 2.084 5.09 2.273 7.252.42l10.64-9.119 1.904 2.16-10.64 9.119c-3.405 2.918-8.501 2.623-11.395-.66z"/>
</svg>
