<svg xmlns="http://www.w3.org/2000/svg" viewBox="0 0 23.93 25.39"><title>Wizard_Attachmdpi</title><g id="Layer_2" data-name="Layer 2"><g id="Layer_1-2" data-name="Layer 1"><path d="M1.9,22.73a8,8,0,0,1,.91-11.21L14.39,1.46a5.77,5.77,0,0,1,8.16.48,5.79,5.79,0,0,1-.66,8.15l-9.38,8.14a3.57,3.57,0,1,1-4.68-5.39L16.1,5.65,18,7.81,9.6,15.08c-.61.53.33,1.61.94,1.08L20,7.93a2.9,2.9,0,0,0,.33-4.08,2.9,2.9,0,0,0-4.08-.23L4.68,13.68a5.06,5.06,0,0,0-.58,7.13,5.06,5.06,0,0,0,7.14.42l10.48-9.11,1.87,2.16L13.12,23.39A8,8,0,0,1,1.9,22.73Z"/></g></g></svg>